<?xml version="1.0"?>
<svg xmlns="http://www.w3.org/2000/svg" id="filled_outline" data-name="filled outline" viewBox="0 0 512 512" width="512" height="512"><path d="M456,384l-32-96H88L56,384h0a71.556,71.556,0,0,1,0,64H456A71.556,71.556,0,0,1,456,384Z" style="fill:#f9d59b"/><path d="M192.2,160H178.452a46.586,46.586,0,0,1-46.227-40.809l-1.379-11.034a25.048,25.048,0,0,1,7.143-20.82h0A25.049,25.049,0,0,1,155.7,80H214.95a25.049,25.049,0,0,1,17.713,7.337h0a25.048,25.048,0,0,1,7.143,20.82l-1.379,11.034A46.586,46.586,0,0,1,192.2,160Z" style="fill:#dceaef"/><path d="M333.548,160H319.8a46.586,46.586,0,0,1-46.227-40.809l-1.379-11.034a25.048,25.048,0,0,1,7.143-20.82h0A25.049,25.049,0,0,1,297.05,80H356.3a25.049,25.049,0,0,1,17.713,7.337h0a25.048,25.048,0,0,1,7.143,20.82l-1.379,11.034A46.586,46.586,0,0,1,333.548,160Z" style="fill:#dceaef"/><path d="M232.663,87.337A25.049,25.049,0,0,0,214.95,80H155.7a25.049,25.049,0,0,0-17.713,7.337h0a25.048,25.048,0,0,0-7.143,20.82l.48,3.843H180.3a25.049,25.049,0,0,1,17.713,7.337h0a25.048,25.048,0,0,1,7.143,20.82l-1.379,11.034a46.8,46.8,0,0,1-1.649,7.734,46.591,46.591,0,0,0,36.3-39.734l1.379-11.034A25.048,25.048,0,0,0,232.663,87.337Z" style="fill:#74a2b7"/><path d="M374.011,87.337h0A25.049,25.049,0,0,0,356.3,80H297.05a25.049,25.049,0,0,0-24.856,28.157l.48,3.843h48.972A25.049,25.049,0,0,1,346.5,140.157l-1.379,11.034a46.693,46.693,0,0,1-1.649,7.734,46.591,46.591,0,0,0,36.3-39.734l1.379-11.034A25.048,25.048,0,0,0,374.011,87.337Z" style="fill:#74a2b7"/><path d="M56,448h0a71.556,71.556,0,0,0,0-64h49.641A73.849,73.849,0,0,0,146.6,371.6l6.849-4.567a73.846,73.846,0,0,1,89.021,5.376L256,384l19.692-14.769a73.845,73.845,0,0,1,88.616,0h0A73.842,73.842,0,0,0,408.615,384H456a71.556,71.556,0,0,0,0,64H56Z" style="fill:#ffc866"/><path d="M386.125,90.772,370.788,35.558a25.87,25.87,0,0,0-25.106-19.47h-.166a25.992,25.992,0,0,0-25.764,25.927V56h16V42.015a9.951,9.951,0,0,1,9.864-9.927h.064a9.906,9.906,0,0,1,9.622,7.491c.015.061.031.12.048.179L364.6,73.05A33.234,33.234,0,0,0,356.3,72H297.05a33.115,33.115,0,0,0-31.809,24H246.759A33.117,33.117,0,0,0,214.95,72H155.7a33.229,33.229,0,0,0-8.568,1.124L156.4,39.758c.017-.059.033-.118.048-.179a9.906,9.906,0,0,1,9.622-7.491h.064A9.951,9.951,0,0,1,176,42.015V56h16V42.015a25.991,25.991,0,0,0-25.764-25.927h-.166a25.872,25.872,0,0,0-25.106,19.47L125.219,92.241a32.918,32.918,0,0,0-2.312,16.908l1.379,11.035A54.673,54.673,0,0,0,178.452,168H192.2a54.673,54.673,0,0,0,54.166-47.815L247.389,112h17.222l1.024,8.184A54.673,54.673,0,0,0,319.8,168h13.747a54.673,54.673,0,0,0,54.166-47.816l1.379-11.035A32.884,32.884,0,0,0,386.125,90.772ZM231.868,107.164l-1.38,11.035A38.647,38.647,0,0,1,192.2,152H178.452a38.647,38.647,0,0,1-38.289-33.8l-1.379-11.034A17.05,17.05,0,0,1,155.7,88H214.95a17.05,17.05,0,0,1,16.918,19.164Zm141.348,0L371.837,118.2A38.647,38.647,0,0,1,333.548,152H319.8a38.647,38.647,0,0,1-38.289-33.8l-1.38-11.033A17.049,17.049,0,0,1,297.05,88H356.3a16.935,16.935,0,0,1,12.056,4.994,17.175,17.175,0,0,1,2.811,3.7l.127.457.106-.029A16.953,16.953,0,0,1,373.216,107.165Z" style="fill:#48687a"/><path d="M432,256l-12.613,3.364A269.564,269.564,0,0,0,256,384h0A269.564,269.564,0,0,0,92.613,259.364L80,256l24-80,26.952,6.22a186.1,186.1,0,0,1,117.731,85.585L256,280h0a186.1,186.1,0,0,1,127.457-98.741L408,176Z" style="fill:#ffedd4"/><path d="M40,480H198.059A81.941,81.941,0,0,0,256,456h0a81.941,81.941,0,0,0,57.941,24H472a16,16,0,0,0,16-16h0a16,16,0,0,0-16-16H329.941A81.941,81.941,0,0,1,272,424l-16-16-16,16a81.941,81.941,0,0,1-57.941,24H40a16,16,0,0,0-16,16h0A16,16,0,0,0,40,480Z" style="fill:#a5662d"/><path d="M472,440H461.18a63.881,63.881,0,0,1,1.975-52.422,7.992,7.992,0,0,0,.425-6.1l.01,0-32-96A8,8,0,0,0,424,280H400v16h18.234L444.9,376H408.615a66.259,66.259,0,0,1-39.508-13.17,81.91,81.91,0,0,0-82.018-9.476,261.505,261.505,0,0,1,30.159-30.939l-10.5-12.076A276.952,276.952,0,0,0,264,357.073V281.946a177.192,177.192,0,0,1,121.133-92.865l17.325-3.712L421.967,250.4l-4.642,1.238a276.333,276.333,0,0,0-94.78,45.961l9.586,12.81a260.426,260.426,0,0,1,89.317-43.312l12.614-3.364a8,8,0,0,0,5.6-10.028l-24-80a8,8,0,0,0-9.339-5.523l-24.544,5.259a194.023,194.023,0,0,0-126.093,90.491l-.144-.24a195.087,195.087,0,0,0-122.792-89.263l-26.952-6.22a8,8,0,0,0-9.462,5.5l-24,80a8,8,0,0,0,5.6,10.028l12.614,3.364A262.156,262.156,0,0,1,127.589,280H88a8,8,0,0,0-7.59,5.47l-32,96,.01,0a7.992,7.992,0,0,0,.425,6.1A63.881,63.881,0,0,1,50.82,440H40a24,24,0,0,0,0,48H198.059A89.261,89.261,0,0,0,256,466.859,89.261,89.261,0,0,0,313.941,488H472a24,24,0,0,0,0-48ZM90.033,250.4l19.475-64.915,19.645,4.534a179,179,0,0,1,112.669,81.906l6.178,10.3v74.86a276.125,276.125,0,0,0-56.5-57.935,276.205,276.205,0,0,0-96.827-47.508ZM93.766,296h64.728a263.425,263.425,0,0,1,23.3,15.862A260.821,260.821,0,0,1,223.969,352.2a82.158,82.158,0,0,0-74.953,8.171l-6.85,4.566A65.638,65.638,0,0,1,105.642,376H67.1ZM472,472H313.941a73.453,73.453,0,0,1-52.284-21.657,8,8,0,0,0-11.314,0A73.453,73.453,0,0,1,198.059,472H40a8,8,0,0,1,0-16h80V440H67.816a80.181,80.181,0,0,0,.018-48h37.808a81.584,81.584,0,0,0,45.4-13.746l6.85-4.566a66.077,66.077,0,0,1,79.378,4.792l13.525,11.594c.046.039.1.066.145.1a7.908,7.908,0,0,0,.82.589c.07.044.136.1.208.137a7.952,7.952,0,0,0,1.083.525c.11.044.223.075.335.114a7.949,7.949,0,0,0,.837.243c.136.03.271.058.408.081a7.675,7.675,0,0,0,.847.1c.125.009.249.023.375.025.05,0,.1.01.148.01a7.941,7.941,0,0,0,1.06-.071c.018,0,.035-.008.054-.011a7.925,7.925,0,0,0,1.128-.248c.123-.036.242-.082.363-.124a7.771,7.771,0,0,0,.8-.326c.12-.056.239-.113.357-.176a7.939,7.939,0,0,0,.928-.578c.034-.025.072-.04.106-.066l19.692-14.769a66.188,66.188,0,0,1,79.016,0A82.354,82.354,0,0,0,408.615,392h35.551a80.181,80.181,0,0,0,.018,48H329.941a73.453,73.453,0,0,1-52.284-21.657l-16-16a8,8,0,0,0-11.314,0l-16,16A73.453,73.453,0,0,1,182.059,440H136v16h46.059a89.352,89.352,0,0,0,63.6-26.343L256,419.313l10.343,10.344A89.352,89.352,0,0,0,329.941,456H472a8,8,0,0,1,0,16Z"/><path d="M192,56V42.015a25.991,25.991,0,0,0-25.764-25.927h-.166a25.872,25.872,0,0,0-25.106,19.47L125.219,92.241a32.918,32.918,0,0,0-2.312,16.908l1.379,11.035A54.673,54.673,0,0,0,178.452,168H192.2a54.673,54.673,0,0,0,54.166-47.815L247.389,112h17.222l1.024,8.184A54.673,54.673,0,0,0,319.8,168h13.747a54.673,54.673,0,0,0,54.166-47.816l1.379-11.035a32.884,32.884,0,0,0-2.968-18.377L370.788,35.558a25.87,25.87,0,0,0-25.106-19.47h-.166a25.992,25.992,0,0,0-25.764,25.927V56h16V42.015a9.951,9.951,0,0,1,9.864-9.927h.064a9.906,9.906,0,0,1,9.622,7.491c.015.061.031.12.048.179L364.6,73.05A33.234,33.234,0,0,0,356.3,72H297.05a33.115,33.115,0,0,0-31.809,24H246.759A33.117,33.117,0,0,0,214.95,72H155.7a33.229,33.229,0,0,0-8.568,1.124L156.4,39.758c.017-.059.033-.118.048-.179a9.906,9.906,0,0,1,9.622-7.491h.064A9.951,9.951,0,0,1,176,42.015V56Zm92.993,36.994A16.941,16.941,0,0,1,297.05,88H356.3a16.935,16.935,0,0,1,12.056,4.994,17.175,17.175,0,0,1,2.811,3.7l.127.457.106-.029a16.953,16.953,0,0,1,1.818,10.042L371.837,118.2A38.647,38.647,0,0,1,333.548,152H319.8a38.647,38.647,0,0,1-38.289-33.8l-1.38-11.033A16.941,16.941,0,0,1,284.993,92.994ZM214.95,88a17.05,17.05,0,0,1,16.918,19.164l-1.38,11.035A38.647,38.647,0,0,1,192.2,152H178.452a38.647,38.647,0,0,1-38.289-33.8l-1.379-11.034A17.05,17.05,0,0,1,155.7,88Z"/></svg>
